# xmcd
#
# Track frame offsets:
# 150
# 11882
# 24908
# 39814
# 54149
# 68544
# 82639
# 95782
# 108335
# 130051
# 151687
# 166165
# 179034
# 191979
# 206967
# 220636
# 235656
# 248268
# 262715
# 283212
# 295809
# 307634
# 320675
# 333843
# 346838
#
# Disc length: 4799 seconds
#
# Revision: 0
# Processed by: cddbd v1.5.2PL0 Copyright (c) Steve Scherf et al.
# Submitted via: Audion 3.0.2 (http://www.panic.com/audion/)
#
DISCID=4412bd19
DTITLE=Various Artist - The Big Blast - 100 Classic Big Bands, Jump For Joy (disk 3)
DYEAR=1900
DGENRE=
TTITLE0=The Moose - Charlie Barnet and His Orchestra
TTITLE1=Bradshaw Bounce - Tiny Bradshaw  and His Orchestra
TTITLE2=Fish Market - Roy Eldridge and His Orchestra
TTITLE3=Jumpin' On The Merry Go Round - Artie Shaw and His Orchestra
TTITLE4=In The Middle - Georgie Auld and His Orchestra
TTITLE5=Night In Tunisia - Boyd Raeburn and His Orchestra
TTITLE6=Cool Breeze - Billy Eckstein and His Orchestra
TTITLE7=Annie, Annie Over - Charlie ventura and His Orchestra
TTITLE8=Introspection - Ralph Burns and His Orchestra
TTITLE9=The Bloos - George Handy and His Orchestra
TTITLE10=Disk Jockey Jump - Gene Krupa and His Orchestra
TTITLE11=Jivin' With Jack The Bellboy - Illinois Jacquet and His Orchestra
TTITLE12=Railroad Porter's Blues - Eddie "Cleanhead" Vinson
TTITLE13=Midnight Sun - Lionel Hampton and His Orchestra
TTITLE14=Repetition - Neal Hefti and His Orchestra
TTITLE15=Yardbird Suite - Claude Thornhill and His Orchestra
TTITLE16=Good Bait - Dizzy Gillespie and His Orchestra
TTITLE17=Asia Minor - Machito and His Afro-Cubans
TTITLE18=Overtime - The Metronome All Stars
TTITLE19=Gassin' The Wig - Roy Porter and His Orchestra
TTITLE20=Elevation - Elliot Lawrence and His Orchestra
TTITLE21=A Bird In Igor's Yard - Buddy De Franco and His Orchestra
TTITLE22=Tropicana - Gil Fuller and His Orchestra
TTITLE23=Not Really The Blues - Woody Herman Orchestra
TTITLE24=Euphoria - Ted Heath and His Music
EXTD=
EXTT0=
EXTT1=
EXTT2=
EXTT3=
EXTT4=
EXTT5=
EXTT6=
EXTT7=
EXTT8=
EXTT9=
EXTT10=
EXTT11=
EXTT12=
EXTT13=
EXTT14=
EXTT15=
EXTT16=
EXTT17=
EXTT18=
EXTT19=
EXTT20=
EXTT21=
EXTT22=
EXTT23=
EXTT24=
PLAYORDER=
